# xmcd CD database file
#
# Track frame offsets:
#	150
#	17782
#	33972
#	50155
#	71277
#	84433
#	100941
#	120107
#	134209
#	150362
#	171223
#	187629
#	206257
#	226327
#	244821
#	265194
#	280601
#	299262
#
# Disc length: 4186 seconds
#
# Revision: 0
# Processed by: cddbd v1.5.1PL0 Copyright (c) Steve Scherf et al.
# Submitted via: CDex 1.51
#
DISCID=ea105812
DTITLE=Shania Twain - Come On Over
DYEAR=1997
DGENRE=Country
TTITLE0=Man! I Feel Like A Woman!
TTITLE1=Love Gets Me Every Time
TTITLE2=Don't Be Stupid (You Know I Love You)
TTITLE3=From This Moment On
TTITLE4=Come On Over
TTITLE5=When
TTITLE6=If You Wanna Touch Her, Ask!
TTITLE7=You're Still The One
TTITLE8=Honey, I'm Home
TTITLE9=That Don't Impress Me Much
TTITLE10=Black Eyes, Blue Tears
TTITLE11=I Won't Leave You Lonely
TTITLE12=Rock This Country!
TTITLE13=Thank You Baby! (For Makin' Someday Come So Soon)
TTITLE14=I'm Gonna Getcha
TTITLE15=You've Got A Way
TTITLE16=Any Man Of Mine
TTITLE17=Who knows?
EXTD=YEAR: 1997
EXTT0=
EXTT1=
EXTT2=
EXTT3=
EXTT4=
EXTT5=
EXTT6=
EXTT7=
EXTT8=
EXTT9=
EXTT10=
EXTT11=
EXTT12=
EXTT13=
EXTT14=
EXTT15=
EXTT16=
EXTT17=
PLAYORDER=
